<svg id="Layer_1" data-name="Layer 1" xmlns="http://www.w3.org/2000/svg" width="2in" height="3in" viewBox="0 0 144 216"><title>wwf-logo</title><path d="M39.2,117.4l-.4.7c-.2,2.6-.6,5.3,0,7.8a23.1,23.1,0,0,0,2.1,4.5,9.8,9.8,0,0,1,1.3,5,3.2,3.2,0,0,1-1.6,2.9,9.2,9.2,0,0,1-3.9,1.4,24.6,24.6,0,0,1-10.8,0,19.1,19.1,0,0,1-10.5-6.9,38.5,38.5,0,0,1-6.2-12.5,68.4,68.4,0,0,1-3.1-16.1c-.3-3.5-.3-7.1-.5-10.7a29.6,29.6,0,0,0-1.4-8.4,17.8,17.8,0,0,1-1-5.1c-.3-3.6-.6-7.1-.7-10.7a45.5,45.5,0,0,1,31.9-44H35c-9.8,5.9-16.7,14.1-20.3,25a46.1,46.1,0,0,0,.8,32.1A48.8,48.8,0,0,0,22,93.6a41.8,41.8,0,0,0,8.4,8.4l2.5,1.6c.1.1.2,0,.4,0s-.1-.6-.1-.8a58.4,58.4,0,0,1-2.5-10.2,36.4,36.4,0,0,1,0-6.6A80.7,80.7,0,0,0,31,73a47.1,47.1,0,0,1,7.1-28.6A52.1,52.1,0,0,1,52.2,29.3l1-.7a1.5,1.5,0,0,0,.1-2.5,10.8,10.8,0,0,1-2.7-5.3,9.6,9.6,0,0,1,2.1-8.7,26.1,26.1,0,0,1,6.4-6A12.6,12.6,0,0,1,71.9,4.7c2,.7,3.2,2.4,4.2,4.1A24,24,0,0,1,79.6,18c.4,2.8-.6,4.4-3.3,5.2a22.4,22.4,0,0,0-8.4,4.9,32.2,32.2,0,0,1-2.8,2.4,5.8,5.8,0,0,1-5.5,1.3,2.9,2.9,0,0,0-1-.3,2.7,2.7,0,0,0-2.4.9,22.4,22.4,0,0,0-5.5,7.4,43.9,43.9,0,0,0-3.8,12.3,48.3,48.3,0,0,0-.5,12c.9,11.4,6,20.1,16.2,25.6a24.6,24.6,0,0,0,3.8,1.4,8.7,8.7,0,0,1,5.5,3.8,12.8,12.8,0,0,1,1.5,2.5c1.5,3,3,3.8,6.6,3.5l3.5-.4a10.4,10.4,0,0,1,5.2.8,18.8,18.8,0,0,0,5.8,1.9,2.8,2.8,0,0,0,3.2-1.3l.9-1.3a6.6,6.6,0,0,1,5.3-3.5,18.8,18.8,0,0,1,4.1-.2,17.1,17.1,0,0,0,7.1-1.5,38.9,38.9,0,0,0,15.5-11.7A32.3,32.3,0,0,0,136.2,71a54.5,54.5,0,0,0,1.2-12.8,7.5,7.5,0,0,0,.5,1.6A56.1,56.1,0,0,1,140.3,72a73.3,73.3,0,0,1-.2,14.8c-.5,4.9-1,9.8-1.7,14.7a118.3,118.3,0,0,1-7.5,29.2,48.7,48.7,0,0,1-7.6,12.8,23.7,23.7,0,0,1-11.2,8,19.7,19.7,0,0,1-8.7.7c-3.4-.4-5.3-2.3-6.1-5.8a25,25,0,0,1-.2-6.7c.5-3.8,1-7.7,1.3-11.6a34.7,34.7,0,0,0-1.2-12.4,3.7,3.7,0,0,0-5.4-2.3,7.7,7.7,0,0,0-3.1,3.6,20.1,20.1,0,0,0-1.8,7.1,59.7,59.7,0,0,0,.3,15.8,21.4,21.4,0,0,0,3.4,9.1,8.2,8.2,0,0,1,1.6,3.7,4.8,4.8,0,0,1-2.1,4.7,13.1,13.1,0,0,1-5.4,2,30.8,30.8,0,0,1-16.2-1.3,29.7,29.7,0,0,1-11.6-8.2A58.5,58.5,0,0,1,47.8,136,179.2,179.2,0,0,1,40,118.7l-.6-1.3Zm45.9-8.3,2.3-.2a5.9,5.9,0,0,0,4.4-2c.4-.5.9-.9.6-1.6s-1-.7-1.6-.7l-2.7.2a15.1,15.1,0,0,1-7-1l-1.5-.4c-1-.1-1.6.6-1.2,1.5a3,3,0,0,0,.4,1,7.9,7.9,0,0,0,3.1,2.4A6.1,6.1,0,0,0,85.1,109.1Z"/><path d="M81.3,190.7a2.5,2.5,0,0,0-.2.7c-2.7,6-5.4,12.1-8,18.1l-.4.8a2.4,2.4,0,0,1-3.9.2,10.5,10.5,0,0,1-1.3-2.3l-7.8-22c-.9-2.2-1.7-4.5-2.4-6.8a7,7,0,0,1-.5-3.5,2.2,2.2,0,0,1,2.3-2.1h7.8a2.2,2.2,0,0,1,2.2,1.6l1.5,5.3c.9,3.4,1.7,6.8,2.6,10.2a6.4,6.4,0,0,1,.2.7l.4-.6,4.3-6.3a1.6,1.6,0,0,0,.2-1.2,26.4,26.4,0,0,1-.4-6.3,8.7,8.7,0,0,1,.5-2.2,1.8,1.8,0,0,1,1.9-1.2h6.2a2.5,2.5,0,0,1,2,.9,9.1,9.1,0,0,1,1.1,2.2c1.4,4.7,2.7,9.4,4.1,14.1a4.5,4.5,0,0,0,.2.8,1.3,1.3,0,0,0,.3-.7c2.3-5.1,4.5-10.1,6.7-15.2a3,3,0,0,1,3-2.1,2.1,2.1,0,0,1,2,2.9c-2.6,6.8-5.1,13.5-7.6,20.3-1.5,4.1-3.1,8.1-4.6,12.2-.6,1.4-1.5,2.2-2.7,2.2a2.4,2.4,0,0,1-2.1-1.2,16.3,16.3,0,0,1-1.1-2.3l-6.2-16.5A3.6,3.6,0,0,0,81.3,190.7Z"/><path d="M29,190.8c-.2.2-.2.4-.3.5l-8,18.2a5.6,5.6,0,0,1-.5.8,2.4,2.4,0,0,1-3.8.3,7.1,7.1,0,0,1-1.1-2.1c-2.7-7.4-5.4-14.8-8-22.2q-1.3-3.5-2.4-6.9a7.1,7.1,0,0,1-.5-3.5,2.2,2.2,0,0,1,2.3-2.1h7.8a2.2,2.2,0,0,1,2.2,1.7l1.5,5.2c.9,3.4,1.7,6.8,2.6,10.2a6.4,6.4,0,0,1,.2.7l.4-.6,4.3-6.3a1.6,1.6,0,0,0,.2-1.2,26.7,26.7,0,0,1-.4-6.3A14.2,14.2,0,0,1,26,175a1.7,1.7,0,0,1,1.8-1.2H34a2.6,2.6,0,0,1,2.1.9,6.5,6.5,0,0,1,1.1,2.2c1.2,4,2.4,7.9,3.5,11.9.3.9.5,1.9.8,3l.3-.7c2.2-5,4.5-10.1,6.7-15.2a3.2,3.2,0,0,1,3-2.1,2.1,2.1,0,0,1,2,2.9L46.3,196l-5,13.2c-.6,1.5-1.5,2.2-2.8,2.2a2.1,2.1,0,0,1-2-1.2,16.3,16.3,0,0,1-1.1-2.3c-2.1-5.5-4.2-11-6.2-16.6C29.1,191.2,29.1,191,29,190.8Z"/><path d="M121,188.3h10.7a6.5,6.5,0,0,1,1.9.4,1.9,1.9,0,0,1,1.3,1.7,2.1,2.1,0,0,1-1,2.1,4.1,4.1,0,0,1-1.8.5H121v.7c0,4.8,0,9.6-.1,14.4a6.4,6.4,0,0,1-.3,2c-.2.9-.8,1.2-1.7,1.2h-7.1a2,2,0,0,1-1.9-1.2,7.4,7.4,0,0,1-.5-2.5V176.4a2.6,2.6,0,0,1,2.6-2.6h25a2.6,2.6,0,0,1,2.4,3.6,2,2,0,0,1-1.8,1.5H122.3a1.3,1.3,0,0,0-1.3,1.4Z"/><path d="M125.8,11.5a13.2,13.2,0,0,1,9.7,4.5,41.8,41.8,0,0,1,4.6,5.8c3.2,5.1,1,10.2-1.6,13a29.5,29.5,0,0,1-6.9,5.3,3.7,3.7,0,0,1-3.1.1A7.2,7.2,0,0,1,125,38c-.9-1.1-1.9-2.2-2.9-3.2a19.3,19.3,0,0,0-7.1-4.9,3.9,3.9,0,0,1-2.6-4.6,23.5,23.5,0,0,1,3.5-8.1,18.8,18.8,0,0,1,1.8-2.4C119.8,12.4,122,11.4,125.8,11.5Z"/><path d="M119.5,75.5a9.7,9.7,0,0,1-6.3,9.8,5.4,5.4,0,0,1-6.4-1.1,18.3,18.3,0,0,1-2.4-3.1,58.2,58.2,0,0,1-4.5-10.6,5.5,5.5,0,0,1,.6-5l1.8-2.7a8.2,8.2,0,0,1,13.7.5A29.5,29.5,0,0,1,119.5,75.5Z"/><path d="M59.6,70.8A14.4,14.4,0,0,1,61,65.3a29.2,29.2,0,0,1,6.1-8.6c4-4.1,11.6-2.4,13.4,3.4.4,1.2.7,2.4,1,3.7a5.2,5.2,0,0,1-.7,3.8A19.5,19.5,0,0,1,79,70.1q-2.6,3.2-5.4,6.3a13.9,13.9,0,0,1-3.9,2.8,5.4,5.4,0,0,1-6.3-.8A9.9,9.9,0,0,1,59.6,70.8Z"/><path d="M83.3,88.4a32.3,32.3,0,0,1,10.2,1.5,7.5,7.5,0,0,1,2,1c.7.5.8.9.4,1.8A2,2,0,0,1,94,94.1c-1.4.3-2.8.4-4.1.8a6,6,0,0,0-3.4,2.5c-.3.5-.8.5-1,0-1.2-2.5-3.4-3.6-5.9-4.4l-.8-.2a4.7,4.7,0,0,1-1.2-.7,1.7,1.7,0,0,1,.6-3,10.5,10.5,0,0,1,4.3-.7Z"/></svg>